<svg width="24" height="118" viewBox="0 0 24 118" fill="none" xmlns="http://www.w3.org/2000/svg">
<path d="M24 2.30755C23.1172 2.69927 22.1691 2.96408 21.1722 3.08311C22.1896 2.47386 22.969 1.50841 23.3371 0.359373C22.3706 0.933403 21.3129 1.33752 20.2098 1.55417C19.3122 0.597366 18.0322 0 16.6161 0C13.8978 0 11.6934 2.20358 11.6934 4.92338C11.6934 5.30874 11.7368 5.6847 11.8202 6.04566C7.72833 5.84001 4.1006 3.87996 1.67237 0.901641C1.24837 1.62903 1.00567 2.47475 1.00567 3.37709C1.00567 5.08498 1.87497 6.59187 3.19584 7.47457C2.41391 7.45034 1.64913 7.23928 0.965445 6.85903V6.92125C0.965445 9.3069 2.66228 11.2961 4.91473 11.7485C4.50096 11.8619 4.06673 11.9211 3.6175 11.9211C3.29987 11.9211 2.99172 11.8911 2.69069 11.8345C3.31722 13.7898 5.1355 15.2131 7.28933 15.2534C5.60431 16.5742 3.48112 17.3616 1.17509 17.3616C0.77791 17.3616 0.385365 17.3379 0 17.2915C2.17918 18.6888 4.7666 19.5045 7.54708 19.5045C16.6026 19.5045 21.5552 12.0024 21.5552 5.4964C21.5552 5.28281 21.5505 5.07081 21.5402 4.85957C22.5051 4.16164 23.338 3.29748 24 2.30755Z" fill="#F1D8C0"/>
<path d="M8.00096 56.5045C8.00096 54.2955 9.79134 52.5042 12.0005 52.5042C14.2096 52.5042 16.001 54.2955 16.001 56.5045C16.001 58.7136 14.2096 60.5048 12.0005 60.5048C9.79134 60.5048 8.00096 58.7136 8.00096 56.5045ZM5.83838 56.5045C5.83838 59.9077 8.59714 62.6664 12.0005 62.6664C15.4038 62.6664 18.1626 59.9077 18.1626 56.5045C18.1626 53.1013 15.4038 50.3427 12.0005 50.3427C8.59714 50.3427 5.83838 53.1013 5.83838 56.5045ZM16.9665 50.0983C16.9662 50.8936 17.6106 51.5386 18.406 51.5389C19.2013 51.5392 19.8463 50.8948 19.8466 50.0995C19.8469 49.3042 19.2024 48.6592 18.4071 48.6589H18.4065C17.6116 48.6593 16.9672 49.3034 16.9665 50.0983ZM7.15229 66.2722C5.98229 66.2189 5.34636 66.0241 4.92375 65.8594C4.36347 65.6413 3.96371 65.3815 3.54341 64.9618C3.1231 64.5421 2.86293 64.1428 2.64577 63.5825C2.48103 63.1601 2.28614 62.524 2.23295 61.3541C2.17477 60.0892 2.16316 59.7092 2.16316 56.5046C2.16316 53.3 2.17573 52.9211 2.23295 51.6552C2.28624 50.4852 2.48256 49.8504 2.64577 49.4267C2.86389 48.8665 3.12368 48.4667 3.54341 48.0464C3.96313 47.6261 4.36251 47.366 4.92375 47.1488C5.34617 46.9841 5.98229 46.7892 7.15229 46.736C8.41723 46.6779 8.79722 46.6662 12.0005 46.6662C15.2037 46.6662 15.5841 46.6788 16.8501 46.736C18.0201 46.7893 18.655 46.9856 19.0787 47.1488C19.6389 47.366 20.0387 47.6267 20.459 48.0464C20.8793 48.4661 21.1385 48.8665 21.3566 49.4267C21.5214 49.8491 21.7163 50.4852 21.7694 51.6552C21.8276 52.9211 21.8392 53.3 21.8392 56.5046C21.8392 59.7092 21.8276 60.0881 21.7694 61.3541C21.7162 62.524 21.5203 63.1599 21.3566 63.5825C21.1385 64.1428 20.8787 64.5425 20.459 64.9618C20.0393 65.3812 19.6389 65.6413 19.0787 65.8594C18.6562 66.0242 18.0201 66.219 16.8501 66.2722C15.5852 66.3304 15.2052 66.342 12.0005 66.342C8.79578 66.342 8.41685 66.3304 7.15229 66.2722ZM7.05292 44.5772C5.7754 44.6354 4.90244 44.8379 4.14007 45.1346C3.35053 45.4409 2.68216 45.8519 2.01426 46.5187C1.34636 47.1855 0.936421 47.8549 0.630073 48.6444C0.333421 49.4072 0.130853 50.2797 0.0726749 51.5572C0.0135365 52.8366 0 53.2457 0 56.5045C0 59.7633 0.0135365 60.1724 0.0726749 61.4519C0.130853 62.7294 0.333421 63.6018 0.630073 64.3646C0.936421 65.1536 1.34645 65.8238 2.01426 66.4903C2.68206 67.1569 3.35053 67.5673 4.14007 67.8745C4.90388 68.1711 5.7754 68.3737 7.05292 68.4318C8.33313 68.49 8.74153 68.5045 12.0005 68.5045C15.2594 68.5045 15.6685 68.491 16.948 68.4318C18.2257 68.3737 19.098 68.1711 19.8609 67.8745C20.6499 67.5673 21.3188 67.1572 21.9867 66.4903C22.6546 65.8235 23.0637 65.1536 23.3709 64.3646C23.6675 63.6018 23.8711 62.7293 23.9283 61.4519C23.9865 60.1714 24 59.7633 24 56.5045C24 53.2457 23.9865 52.8366 23.9283 51.5572C23.8701 50.2796 23.6675 49.4068 23.3709 48.6444C23.0637 47.8554 22.6535 47.1866 21.9867 46.5187C21.3199 45.8508 20.6499 45.4409 19.8619 45.1346C19.098 44.8379 18.2256 44.6344 16.949 44.5772C15.6695 44.519 15.2604 44.5045 12.0014 44.5045C8.74249 44.5045 8.33313 44.5181 7.05292 44.5772Z" fill="#F1D8C0"/>
<path fill-rule="evenodd" clip-rule="evenodd" d="M22.6755 117.505C23.407 117.505 24 116.912 24 116.18V94.8291C24 94.0974 23.4069 93.5045 22.6755 93.5045H1.32458C0.592867 93.5045 0 94.0975 0 94.8291V116.18C0 116.912 0.592867 117.505 1.32458 117.505H22.6755V117.505ZM16.5596 117.505V108.211H19.6793L20.1463 104.588H16.5595V102.276C16.5595 101.227 16.8507 100.513 18.3546 100.513L20.2726 100.512V97.272C19.9408 97.228 18.8022 97.1293 17.4777 97.1293C14.7123 97.1293 12.8191 98.8173 12.8191 101.917V104.588H9.69143V108.211H12.8191V117.505H16.5596V117.505Z" fill="#F1D8C0"/>
</svg>
